<svg version="1.1" id="Capa_1" xmlns="http://www.w3.org/2000/svg" xmlns:xlink="http://www.w3.org/1999/xlink" x="0px" y="0px"
	 viewBox="0 0 512 512" style="enable-background:new 0 0 512 512;" xml:space="preserve">
<path style="fill:#DBD9DC;" d="M320.129,397.284h-40.081l-4.128,16.511c-2.285,9.141-10.498,15.554-19.92,15.554
	s-17.636-6.413-19.92-15.554l-4.128-16.511h-40.081l-8.016,64.129h144.29L320.129,397.284z"/>
<g>
	<path style="fill:#C9C6CA;" d="M269.355,424.339h54.156l-3.382-27.054h-40.081l-4.127,16.511
		C274.861,418.032,272.491,421.641,269.355,424.339z"/>
	<path style="fill:#C9C6CA;" d="M231.952,397.284h-40.081l-3.382,27.054h54.156c-3.136-2.698-5.506-6.307-6.566-10.544
		L231.952,397.284z"/>
</g>
<path style="fill:#EDEBED;" d="M480.452,400.29H31.548c-13.282,0-24.048-10.767-24.048-24.048V71.629
	c0-13.282,10.767-24.048,24.048-24.048h448.903c13.282,0,24.048,10.767,24.048,24.048v304.613
	C504.5,389.523,493.733,400.29,480.452,400.29z"/>
<rect x="39.565" y="79.64" style="fill:#E6646E;" width="432.87" height="288.58"/>
<path style="fill:#DC4655;" d="M207.903,344.177c-79.689,0-144.29-64.601-144.29-144.29V79.645H39.565v288.581h432.871v-24.048
	L207.903,344.177L207.903,344.177z"/>
<g>
	<circle style="fill:#6F6571;" cx="207.9" cy="304.1" r="16.03"/>
	<circle style="fill:#6F6571;" cx="320.13" cy="304.1" r="16.03"/>
</g>
<path style="fill:#EF9AA1;" d="M170.325,152.532l25.817,90.357c2.159,7.559,9.481,12.437,17.289,11.518l105.385-12.398
	c10.344-1.217,18.729-8.955,20.771-19.167l12.607-63.035L170.325,152.532z"/>
<path d="M480.451,40.081H31.549C14.152,40.081,0,54.233,0,71.629v304.613c0,17.396,14.152,31.548,31.549,31.548h151.826
	l-6.141,49.129H151.79c-4.143,0-7.5,3.358-7.5,7.5s3.357,7.5,7.5,7.5h208.42c4.143,0,7.5-3.358,7.5-7.5s-3.357-7.5-7.5-7.5h-25.443
	l-6.142-49.129h151.826c17.396,0,31.549-14.152,31.549-31.548V71.629C512,54.233,497.848,40.081,480.451,40.081z M319.649,456.919
	H192.351l6.142-49.129h27.603l2.708,10.83c3.126,12.503,14.31,21.234,27.197,21.234s24.071-8.731,27.197-21.234l2.708-10.83h27.603
	L319.649,456.919z M241.557,407.79h28.885l-1.798,7.192c-1.453,5.813-6.652,9.872-12.645,9.872s-11.191-4.06-12.645-9.872
	L241.557,407.79z M497,376.242c0,9.125-7.424,16.548-16.549,16.548H31.549c-9.125,0-16.549-7.423-16.549-16.548V71.629
	c0-9.125,7.424-16.548,16.549-16.548h448.902c9.125,0,16.549,7.423,16.549,16.548L497,376.242L497,376.242z"/>
<path d="M55.598,360.726h-8.533V87.146h377.273c4.143,0,7.5-3.358,7.5-7.5c0-4.143-3.357-7.5-7.5-7.5H39.564
	c-4.143,0-7.5,3.357-7.5,7.5v288.58c0,4.143,3.357,7.5,7.5,7.5h16.033c4.143,0,7.5-3.357,7.5-7.5
	C63.098,364.084,59.74,360.726,55.598,360.726z"/>
<path d="M472.436,72.146h-16.033c-4.143,0-7.5,3.357-7.5,7.5c0,4.142,3.357,7.5,7.5,7.5h8.533v273.58H87.662
	c-4.143,0-7.5,3.358-7.5,7.5c0,4.143,3.357,7.5,7.5,7.5h384.773c4.143,0,7.5-3.357,7.5-7.5V79.646
	C479.936,75.503,476.578,72.146,472.436,72.146z"/>
<path d="M205.636,261.273c1.887,0.485,3.853,0.747,5.865,0.747c0.927,0,1.863-0.055,2.805-0.165l105.386-12.398
	c13.611-1.602,24.562-11.706,27.25-25.146l12.606-63.034c0.429-2.145-0.1-4.37-1.448-6.093s-3.381-2.771-5.565-2.87l-176.354-8.017
	c-0.138-0.006-0.273-0.009-0.412-0.007c-1.044-3.427-3.25-6.399-6.236-8.391l-21.597-14.398c-3.446-2.297-8.103-1.366-10.4,2.081
	c-2.297,3.447-1.366,8.103,2.08,10.4l21.596,14.396c0.102,0.068,0.177,0.171,0.211,0.289l27.509,96.281
	c0.858,3.002,2.27,5.7,4.083,8.03l-10.065,20.13c-2.423,4.845-2.169,10.488,0.679,15.096c1.033,1.671,2.343,3.094,3.848,4.234
	c-1.97,3.439-3.103,7.417-3.103,11.657c0,12.976,10.557,23.532,23.532,23.532s23.532-10.557,23.532-23.532
	c0-3.009-0.574-5.885-1.608-8.532h68.377c-1.034,2.647-1.608,5.523-1.608,8.532c0,12.976,10.557,23.532,23.532,23.532
	s23.532-10.557,23.532-23.532c0-3.764-0.893-7.321-2.471-10.479c1.514-1.372,2.471-3.348,2.471-5.553c0-4.142-3.357-7.5-7.5-7.5
	H196.825c-0.107,0-0.288,0-0.439-0.245c-0.151-0.244-0.07-0.405-0.022-0.502L205.636,261.273z M212.554,246.958
	c-4.182,0.492-8.047-2.087-9.201-6.13l-9.555-33.441h23.972l6.301,38.216L212.554,246.958z M271.517,240.021v-32.634h25.691
	l-2.709,29.93L271.517,240.021z M271.517,192.387v-28.74l29.529,1.342l-2.48,27.398L271.517,192.387L271.517,192.387z
	 M256.517,192.387H230.5l-5.084-30.835l31.101,1.414V192.387z M256.517,207.387v34.399l-17.532,2.063l-6.011-36.461h23.543V207.387z
	 M317.939,234.56l-8.217,0.967l2.547-28.139h22.759l-2.796,13.983C330.822,228.419,325.078,233.72,317.939,234.56z M338.029,192.387
	h-24.401l2.418-26.716l27.08,1.231L338.029,192.387z M210.098,160.855l5.199,31.532h-25.785l-9.399-32.895L210.098,160.855z
	 M216.436,304.097c0,4.705-3.827,8.532-8.532,8.532s-8.532-3.827-8.532-8.532c0-4.705,3.827-8.532,8.532-8.532
	S216.436,299.392,216.436,304.097z M320.129,312.629c-4.705,0-8.532-3.827-8.532-8.532c0-4.705,3.827-8.532,8.532-8.532
	s8.532,3.828,8.532,8.532C328.661,308.802,324.834,312.629,320.129,312.629z"/>
<g>
</g>
<g>
</g>
<g>
</g>
<g>
</g>
<g>
</g>
<g>
</g>
<g>
</g>
<g>
</g>
<g>
</g>
<g>
</g>
<g>
</g>
<g>
</g>
<g>
</g>
<g>
</g>
<g>
</g>
</svg>
